<?xml version="1.0" encoding="UTF-8" standalone="no"?>
<svg
   xmlns:dc="http://purl.org/dc/elements/1.1/"
   xmlns:cc="http://creativecommons.org/ns#"
   xmlns:rdf="http://www.w3.org/1999/02/22-rdf-syntax-ns#"
   xmlns:svg="http://www.w3.org/2000/svg"
   xmlns="http://www.w3.org/2000/svg"
   xmlns:sodipodi="http://sodipodi.sourceforge.net/DTD/sodipodi-0.dtd"
   xmlns:inkscape="http://www.inkscape.org/namespaces/inkscape"
   width="512"
   height="512"
   viewBox="0 0 135.46667 135.46667"
   version="1.1"
   id="svg8"
   inkscape:export-filename="/home/qh73xe/Documents/proj/wavesurfer.vue/src/assets/logo.png"
   inkscape:export-xdpi="96"
   inkscape:export-ydpi="96"
   sodipodi:docname="logo.svg"
   inkscape:version="1.0 (9f2f71dc58, 2020-08-02)">
  <defs
     id="defs2">
    <filter
       inkscape:collect="always"
       style="color-interpolation-filters:sRGB"
       id="filter1372"
       x="-0.0028006148"
       width="1.0056012"
       y="-0.0032299513"
       height="1.00646">
      <feGaussianBlur
         inkscape:collect="always"
         stdDeviation="0.062008055"
         id="feGaussianBlur1374" />
    </filter>
  </defs>
  <sodipodi:namedview
     id="base"
     pagecolor="#ffffff"
     bordercolor="#666666"
     borderopacity="1.0"
     inkscape:pageopacity="0.0"
     inkscape:pageshadow="2"
     inkscape:zoom="1.1484613"
     inkscape:cx="302.00679"
     inkscape:cy="275.86588"
     inkscape:document-units="mm"
     inkscape:current-layer="layer1"
     inkscape:document-rotation="0"
     showgrid="false"
     units="px"
     fit-margin-top="0"
     fit-margin-left="0"
     fit-margin-right="0"
     fit-margin-bottom="0"
     inkscape:window-width="1848"
     inkscape:window-height="1009"
     inkscape:window-x="72"
     inkscape:window-y="34"
     inkscape:window-maximized="1"
     showguides="false">
    <inkscape:grid
       type="xygrid"
       id="grid850" />
  </sodipodi:namedview>
  <metadata
     id="metadata5">
    <rdf:RDF>
      <cc:Work
         rdf:about="">
        <dc:format>image/svg+xml</dc:format>
        <dc:type
           rdf:resource="http://purl.org/dc/dcmitype/StillImage" />
        <dc:title />
      </cc:Work>
    </rdf:RDF>
  </metadata>
  <g
     inkscape:label="レイヤー 1"
     inkscape:groupmode="layer"
     id="layer1"
     transform="translate(0.06150735,0.00550594)">
    <g
       id="g910"
       transform="matrix(2.2214873,0,0,2.2214873,8.336504,7.5174407)">
      <g
         id="g882"
         transform="matrix(2.0654392,0,0,2.2938781,-130.63188,-237.91486)">
        <g
           id="g1198"
           transform="matrix(0.83277985,0,0,0.83277985,-11.318438,43.795077)">
          <path
             style="fill:#d0d0d0;fill-opacity:1;stroke-width:0.0846667"
             d="m 89.583384,98.047702 c 0,-0.04287 0.09344,-0.629503 0.20764,-1.303639 0.305403,-1.802803 0.828257,-3.852561 1.483318,-5.815089 3.302972,-9.895531 9.334998,-15.624804 17.610538,-16.726662 1.65094,-0.219815 3.47306,-0.119155 4.79911,0.265118 4.66213,1.351034 7.12817,6.246979 6.94379,13.785822 -0.0261,1.066237 -0.0807,1.971889 -0.12137,2.01256 -0.0422,0.04215 -0.19495,-0.244599 -0.35536,-0.6669 -0.15478,-0.407465 -0.55853,-1.294067 -0.89724,-1.970226 -1.89987,-3.792724 -4.1656,-5.917416 -6.47934,-6.076003 -1.55445,-0.106545 -3.33983,0.695622 -4.52071,2.03114 -0.46407,0.524836 -1.0749,1.743783 -1.26238,2.519151 -0.66685,2.757872 0.0276,6.788411 1.89905,11.021919 0.23116,0.52292 0.42029,0.96201 0.42029,0.975756 0,0.01375 -4.43865,0.02499 -9.863669,0.02499 -5.951631,0 -9.863667,-0.03091 -9.863667,-0.07794 z"
             id="path50" />
          <path
             style="fill:#2196f3;fill-opacity:1;stroke-width:0.0846667"
             d="m 89.616239,97.892807 c 0.02547,-0.128058 0.127,-0.709083 0.225621,-1.291166 0.87776,-5.18073 3.181958,-10.841704 5.898619,-14.491776 3.007559,-4.04092 6.992921,-6.63942 11.668731,-7.608141 1.54673,-0.320447 3.08542,-0.442494 4.2226,-0.33493 3.58047,0.338672 5.97036,2.002858 7.45801,5.193352 0.82266,1.764307 1.26136,3.642844 1.4857,6.361827 0.0956,1.158797 0.0498,3.653527 -0.0787,4.281519 l -0.059,0.288604 -0.20127,-0.549395 c -0.30836,-0.841749 -1.11274,-2.510382 -1.65803,-3.439454 -2.21176,-3.768478 -4.86625,-5.407953 -7.44748,-4.59974 -2.18151,0.683056 -3.63512,2.247385 -4.2061,4.526467 -0.16265,0.649209 -0.19047,0.981315 -0.18792,2.243666 0.002,1.030947 0.0478,1.726344 0.15018,2.286 0.36144,1.97512 1.04818,4.244567 1.79928,5.946039 0.21114,0.478296 0.43847,0.993453 0.50519,1.144795 l 0.12131,0.275167 H 99.441459 89.56993 Z"
             id="path48" />
          <path
             style="fill:#1976d2;fill-opacity:1;stroke-width:0.0846667"
             d="m 89.622127,97.935141 c 0.02308,-0.104775 0.121415,-0.6477 0.218516,-1.2065 0.235215,-1.353616 0.838495,-3.805042 1.270991,-5.164667 0.889408,-2.79601 2.424091,-6.100906 3.744081,-8.062775 l 0.696669,-1.035442 1.312333,-0.03945 c 2.281864,-0.0686 4.943213,-0.495415 7.392663,-1.185607 1.28639,-0.362469 2.95913,-0.952004 5.7401,-2.023013 3.55364,-1.368577 5.09306,-2.067214 6.20491,-2.815979 l 0.41656,-0.28053 0.21938,0.170944 c 0.62761,0.489032 1.57899,1.780008 2.14965,2.916969 1.14053,2.27233 1.76179,5.985033 1.57948,9.439152 -0.0404,0.765453 -0.0756,1.448882 -0.0781,1.518732 -0.003,0.06985 -0.18927,-0.3302 -0.41484,-0.889 -1.8744,-4.643223 -4.55014,-7.52205 -7.24835,-7.798491 -1.98506,-0.203374 -4.39344,1.238067 -5.37238,3.215425 -0.52932,1.069174 -0.69711,1.824662 -0.74545,3.356471 -0.0586,1.857409 0.20602,3.548596 0.92061,5.883261 0.30141,0.984744 1.08458,3.000764 1.43898,3.704167 l 0.24527,0.486834 h -9.866494 -9.866498 z"
             id="path46" />
          <path
             id="path44"
             style="fill:#0d47a1;fill-opacity:1;stroke-width:0.539989"
             d="m 382.71875,-80.527344 2.39063,3.457032 c 6.35466,9.185394 13.43314,22.800364 15.86328,30.509765 0.50563,1.603901 0.95145,2.916016 0.99609,2.916016 0.0421,0 0.11356,-1.883843 0.1582,-4.185547 0.0446,-2.301705 0.23505,-6.402703 0.42383,-9.115234 0.40442,-5.818187 -0.70085,-20.270265 -1.59375,-20.837891 -1.3116,-0.833868 -8.41176,-2.142996 -13.20508,-2.435547 z m -69.81055,21.492188 c -0.0772,-0.0036 -0.16275,0.02029 -0.25781,0.0625 -0.47508,0.210978 -6.08731,2.151369 -12.47266,4.3125 -11.72058,3.966813 -26.81184,8.258858 -55.04492,15.65625 -8.48254,2.22253 -18.97121,5.032552 -23.30664,6.24414 l -7.88281,2.203125 -1.40039,4.931641 c -1.83512,6.455343 -3.31261,12.820441 -5.27735,22.75 -0.88147,4.4549079 -1.69824,8.5251933 -1.81445,9.0449219 -0.20027,0.8958733 3.0487,0.9453125 62.37695,0.9453125 34.4235,0 62.58985,-0.077611 62.58985,-0.171875 0,-0.094283 -1.18865,-2.8273212 -2.64063,-6.07421878 -8.2013,-18.33952562 -13.28755,-37.59378562 -13.9414,-52.77539062 -0.24722,-5.740449 -0.38729,-7.103698 -0.92774,-7.128906 z"
             transform="matrix(0.15679337,0,0,0.15679337,57.418847,97.010094)" />
        </g>
      </g>
      <path
         style="fill:#000000;fill-opacity:1;stroke-width:0.267917;filter:url(#filter1372)"
         d="M 13.566917,27.366295 0.36482,4.3075653 c 5.370368,-0.0556 10.738032,-0.08719 16.107393,-0.13612 l 4.170764,-0.03457 3.063019,5.348344 c 1.684659,2.9415907 3.123299,5.3483447 3.196977,5.3483447 0.07368,0 1.512316,-2.406754 3.196977,-5.3483447 l 3.063018,-5.348344 4.170767,0.03457 c 5.427308,-0.03457 10.589001,-0.03477 16.169182,-0.0524 L 40.239029,27.366295 c -7.187554,12.597425 -13.26238,22.827542 -13.336056,22.827542 -0.07368,0 -6.074903,-10.272395 -13.336056,-22.827542 z"
         id="path1174-2"
         sodipodi:nodetypes="scccssscccsss" />
      <path
         style="fill:#2196f3;fill-opacity:1;stroke-width:0.267918"
         d="M 13.566919,27.366294 0.36482245,4.3075655 C 5.7351903,4.2519635 11.102854,4.2203702 16.472215,4.1714453 l 4.170763,-0.03457 3.06302,5.3483438 c 1.684659,2.9415899 3.123299,5.3483439 3.196976,5.3483439 0.07368,0 1.512317,-2.406754 3.196978,-5.3483439 l 3.063016,-5.3483438 4.170767,0.03457 c 5.427309,-0.03457 10.589003,-0.034773 16.169184,-0.052402 L 40.23903,27.366294 C 33.051476,39.96372 26.976651,50.193837 26.902974,50.193837 c -0.07368,0 -6.074902,-10.272395 -13.336055,-22.827543 z"
         id="path1174"
         sodipodi:nodetypes="scccssscccsss" />
      <path
         style="fill:#0d47a1;fill-opacity:1;stroke-width:0.267918"
         d="M 26.462834,30.82936 C 26.303671,30.480035 23.073355,24.843714 19.284353,18.304201 15.495352,11.764687 12.117879,5.8901115 11.73566,5.2755254 L 11.076061,4.2149261 c 3.208782,-0.052858 6.765785,-0.061841 9.998395,-0.078052 l 2.90427,5.2769176 c 1.632614,2.9663803 2.847367,5.4444463 2.921044,5.4444463 0.07368,0 1.531769,-2.543073 3.227362,-5.4739097 l 3.035836,-5.247453 h 4.814615 4.814616 L 42.132601,5.275527 c -0.362783,0.6262574 -3.759694,6.489161 -7.548696,13.028675 -3.789001,6.539513 -7.019316,12.175834 -7.17848,12.525159 -0.159162,0.349325 -0.371247,0.635137 -0.471295,0.635137 -0.100045,0 -0.312132,-0.285812 -0.471296,-0.635138 z"
         id="path1168"
         sodipodi:nodetypes="sssccssscccsssss" />
    </g>
  </g>
</svg>
